PathFileType	4	(X/Y/Z)	G:\GRF\jawan data\CompiledGRF\03. Mohit Kumar\0231~ac~Walking 05_markers.trc
DataRate	CameraRate	NumFrames	NumMarkers	Units	OrigDataRate	OrigDataStartFrame	OrigNumFrames
100.000000	100.000000	5	18	mm	100.000000	463	926
Frame#	Time	c7			r should			l should			sacrum			r asis			r bar 1			r knee 1			r bar 2			r mall			r heel			r met			l asis			l bar 1			l knee 1			l bar 2			l mall			l heel			l met			
		X1	Y1	Z1	X2	Y2	Z2	X3	Y3	Z3	X4	Y4	Z4	X5	Y5	Z5	X6	Y6	Z6	X7	Y7	Z7	X8	Y8	Z8	X9	Y9	Z9	X10	Y10	Z10	X11	Y11	Z11	X12	Y12	Z12	X13	Y13	Z13	X14	Y14	Z14	X15	Y15	Z15	X16	Y16	Z16	X17	Y17	Z17	X18	Y18	Z18	

464	4.63	1388.478149414063	1501.145141601563	237.8426818847656	1302.29443359375	1443.236083984375	65.05478668212891	1319.668579101563	1445.044189453125	408.7635498046875	1458.896850585938	1035.281860351563	218.2324066162109	1263.892944335938	1008.932739257813	114.3139190673828	1211.65087890625	604.9197998046875	29.82234001159668	1160.890625	535.2139892578125	79.80559539794922	1133.273193359375	211.5662994384766	55.92989730834961	1081.269409179688	86.50020599365234	113.2544250488281	1119.363159179688	34.20522308349609	167.8047485351563	933.8235473632813	99.08261108398438	112.090950012207	1290.39404296875	1005.176635742188	362.9316101074219	1413.325317382813	587.6234130859375	402.8193359375	1411.045776367188	500.4580078125	342.0642700195313	1526.972412109375	239.6353149414063	375.3575744628906	1571.067993164063	75.71678161621094	296.9950561523438	1638.550659179688	44.9692268371582	244.0718231201172	1431.979248046875	31.73208999633789	273.2930297851563	
465	4.64	1379.839599609375	1500.104248046875	236.8642730712891	1293.136840820313	1442.392822265625	64.25691986083984	1311.178100585938	1443.884155273438	407.9507751464844	1449.804565429688	1034.321044921875	216.7201690673828	1254.87890625	1007.703063964844	113.8725433349609	1204.747192382813	602.8197021484375	30.66512298583984	1153.935424804688	533.3182983398438	80.92082977294922	1118.741577148438	210.1959533691406	57.08046722412109	1064.112670898438	86.58744812011719	114.9570236206055	1099.783203125	32.58301544189453	169.6580047607422	919.8380737304688	100.6293029785156	113.6345138549805	1282.0263671875	1004.201171875	362.2597351074219	1407.6025390625	587.4276123046875	402.4521484375	1406.247436523438	500.1303100585938	341.8137512207031	1524.532104492188	240.5009613037109	375.184814453125	1570.531127929688	76.93292999267578	297.1432800292969	1638.255859375	46.86865234375	244.2561492919922	1431.901733398438	31.70031356811523	273.2108764648438	
466	4.65	1371.177001953125	1499.051391601563	235.7895050048828	1283.89501953125	1441.498291015625	63.37783432006836	1302.4931640625	1442.76953125	406.974365234375	1440.519775390625	1033.32373046875	215.2129821777344	1245.481689453125	1006.556274414063	113.4919891357422	1197.5078125	601.047607421875	31.37983703613281	1147.079711914063	531.465087890625	81.90925598144531	1105.099853515625	209.0804748535156	58.56327819824219	1048.298217773438	86.65068054199219	116.7070083618164	1083.078979492188	31.9442081451416	171.3803253173828	904.571044921875	102.8385467529297	115.6190567016602	1273.6435546875	1003.183837890625	361.655029296875	1401.754516601563	587.3209838867188	401.9922485351563	1400.908569335938	499.6748962402344	341.4873657226563	1521.882446289063	241.4329071044922	374.9506530761719	1569.897216796875	78.37128448486328	297.2400817871094	1637.913452148438	48.95782470703125	244.4380950927734	1431.929321289063	31.75268363952637	273.2292785644531	
467	4.66	1362.301391601563	1497.956420898438	234.6360015869141	1274.759765625	1440.59814453125	62.36599731445313	1293.532592773438	1441.633178710938	405.8890686035156	1431.1328125	1032.343383789063	213.7319793701172	1235.427734375	1005.509155273438	113.069694519043	1189.560668945313	599.4229125976563	31.87901496887207	1139.681762695313	529.5828857421875	82.75174713134766	1092.167358398438	207.92919921875	59.90277862548828	1033.91357421875	86.55890655517578	118.5861129760742	1068.289184570313	31.56685829162598	173.2645111083984	890.4009399414063	104.4219665527344	117.731689453125	1264.95068359375	1002.127075195313	361.0419006347656	1395.602905273438	587.0908203125	401.6219177246094	1395.065063476563	499.1683044433594	341.1064758300781	1518.88916015625	242.4256286621094	374.677490234375	1569.045288085938	79.88020324707031	297.2730407714844	1637.689453125	51.32338714599609	244.6379699707031	1431.81494140625	31.74418258666992	273.1571044921875	
468	4.67	1353.303955078125	1496.894653320313	233.4264526367188	1265.510986328125	1439.688110351563	61.299560546875	1285.156494140625	1440.669189453125	404.803955078125	1421.762817382813	1031.4619140625	212.3144226074219	1225.7080078125	1004.439697265625	112.6104278564453	1180.985107421875	597.9428100585938	32.2000846862793	1132.179443359375	527.6831665039063	83.53597259521484	1080.25244140625	206.8757629394531	61.10538101196289	1021.091674804688	86.14035034179688	120.3970947265625	1055.088745117188	31.08632850646973	175.1670532226563	876.9631958007813	105.3506469726563	120.1805725097656	1256.274658203125	1001.155883789063	360.4227294921875	1389.06591796875	586.84228515625	401.1873168945313	1389.121826171875	498.8430786132813	340.7505187988281	1515.688720703125	243.4693450927734	374.3725891113281	1568.142456054688	81.46129608154297	297.35107421875	1637.257202148438	53.81592178344727	244.8399810791016	1431.744140625	31.74861526489258	273.010009765625	
